<svg xmlns="http://www.w3.org/2000/svg" version="1.0" width="440" height="380">
  <path d="M118.738 137.542c115.943 155.128 220.9 109.177 294.643-28.81l17.023 7.857c-78.038 230.62-268.156 232.71-409.88 91.667l98.214-70.714z" style="fill:#fff;fill-opacity:1;fill-rule:evenodd;stroke:#000;stroke-width:3;stroke-linecap:butt;stroke-linejoin:miter;stroke-miterlimit:4;stroke-dasharray:none;stroke-opacity:1"/>
  <path d="M115.578 133.1c11.575 17.042-1.905 46.069-30.107 64.83-28.202 18.76-60.444 20.148-72.009 3.1-11.575-17.042 1.906-46.07 30.108-64.83 28.202-18.76 60.443-20.149 72.008-3.1z" style="fill:#fff;fill-opacity:1;fill-rule:evenodd;stroke:#000;stroke-width:3;stroke-linejoin:miter;stroke-miterlimit:4;stroke-dasharray:none;stroke-opacity:1"/>
  <path d="M109.216 137.272c10.113 14.933-1.664 40.368-26.303 56.807-24.638 16.44-52.805 17.656-62.908 2.717-10.113-14.933 1.664-40.368 26.303-56.807 24.638-16.44 52.805-17.655 62.908-2.717z" style="fill:#fff;fill-opacity:1;fill-rule:evenodd;stroke:#000;stroke-width:3;stroke-linejoin:miter;stroke-miterlimit:4;stroke-dasharray:none;stroke-opacity:1"/>
  <path d="M147.53 173.581c7.271 14.116.076 38.371-17.968 57.372-16.987 17.889-39.843 26.543-54.51 22.124.756 1.046 8.812 7.197 12.108 8.158 14.367 4.192 35.792-4.667 52.37-22.126 16.924-17.82 24.548-40.271 18.888-54.257-1.157-2.86-8.886-10.342-10.889-11.27zM352.812 192.984a200.67 200.67 0 0 1-11.281 10.157c14.664 4.03 23.958 13.41 23.656 32.406 3.598-4.08 7.14-8.347 10.594-12.813-2.004-13.753-8.841-24.223-22.969-29.75z" style="fill:red;fill-opacity:1;fill-rule:evenodd;stroke:#000;stroke-width:3;stroke-linecap:butt;stroke-linejoin:miter;stroke-miterlimit:4;stroke-dasharray:none;stroke-opacity:1"/>
  <path d="m423.968 86.766-8.593 22.875 12.437 5.75 8.938-23.844-12.782-4.781z" style="fill:#fff;fill-opacity:1;fill-rule:evenodd;stroke:#000;stroke-width:3.00000167;stroke-linejoin:miter;stroke-miterlimit:4;stroke-dasharray:none;stroke-opacity:1"/>
</svg>
