<?xml version="1.0" encoding="UTF-8" standalone="no"?>
<!-- Created with Inkscape (http://www.inkscape.org/) -->
<svg
   xmlns:dc="http://purl.org/dc/elements/1.1/"
   xmlns:cc="http://web.resource.org/cc/"
   xmlns:rdf="http://www.w3.org/1999/02/22-rdf-syntax-ns#"
   xmlns:svg="http://www.w3.org/2000/svg"
   xmlns="http://www.w3.org/2000/svg"
   xmlns:sodipodi="http://sodipodi.sourceforge.net/DTD/sodipodi-0.dtd"
   xmlns:inkscape="http://www.inkscape.org/namespaces/inkscape"
   version="1.0"
   width="440"
   height="380"
   id="svg2"
   sodipodi:version="0.32"
   inkscape:version="0.45.1"
   sodipodi:docname="Héraldique_meuble_Huchet.svg"
   inkscape:output_extension="org.inkscape.output.svg.inkscape"
   sodipodi:docbase="E:\DIVERS\Héraldique">
  <metadata
     id="metadata14">
    <rdf:RDF>
      <cc:Work
         rdf:about="">
        <dc:format>image/svg+xml</dc:format>
        <dc:type
           rdf:resource="http://purl.org/dc/dcmitype/StillImage" />
        <dc:creator>
          <cc:Agent>
            <dc:title>Zigeuner (http://fr.wikipedia.org/wiki/Utilisateur:Zigeuner)</dc:title>
          </cc:Agent>
        </dc:creator>
        <dc:title>Meuble héraldique : Huchet</dc:title>
        <dc:date>16 X 2007</dc:date>
        <dc:source>http://commons.wikimedia.org/wiki/Image:Meuble_h%C3%A9raldique_Huchet.svg</dc:source>
        <dc:description>fr : huchet
en: hunting horn</dc:description>
        <cc:license
           rdf:resource="http://creativecommons.org/licenses/by-sa/2.5/" />
      </cc:Work>
      <cc:License
         rdf:about="http://creativecommons.org/licenses/by-sa/2.5/">
        <cc:permits
           rdf:resource="http://web.resource.org/cc/Reproduction" />
        <cc:permits
           rdf:resource="http://web.resource.org/cc/Distribution" />
        <cc:requires
           rdf:resource="http://web.resource.org/cc/Notice" />
        <cc:requires
           rdf:resource="http://web.resource.org/cc/Attribution" />
        <cc:permits
           rdf:resource="http://web.resource.org/cc/DerivativeWorks" />
        <cc:requires
           rdf:resource="http://web.resource.org/cc/ShareAlike" />
      </cc:License>
    </rdf:RDF>
  </metadata>
  <sodipodi:namedview
     inkscape:window-height="750"
     inkscape:window-width="1280"
     inkscape:pageshadow="2"
     inkscape:pageopacity="0.0"
     guidetolerance="10.0"
     gridtolerance="10.0"
     objecttolerance="10.0"
     borderopacity="1.0"
     bordercolor="#666666"
     pagecolor="#ffffff"
     id="base"
     inkscape:zoom="0.99210526"
     inkscape:cx="220"
     inkscape:cy="190"
     inkscape:window-x="-8"
     inkscape:window-y="-8"
     inkscape:current-layer="svg2" />
  <defs
     id="defs4" />
  <path
     d="M 118.73777,137.54153 C 234.68069,292.67042 339.6379,246.71923 413.38064,108.732 L 430.40445,116.58914 C 352.3662,347.20906 162.24831,349.29986 20.523483,208.25581 L 118.73777,137.54153 z "
     style="fill:#ffffff;fill-opacity:1;fill-rule:evenodd;stroke:#000000;stroke-width:3;stroke-linecap:butt;stroke-linejoin:miter;stroke-miterlimit:4;stroke-dasharray:none;stroke-opacity:1"
     id="path6357" />
  <path
     d="M 115.57839,133.10001 C 127.15343,150.14191 113.67291,179.16896 85.470778,197.92954 C 57.268641,216.69013 25.027287,218.07811 13.462366,201.02949 C 1.887332,183.98759 15.367847,154.96054 43.569984,136.19995 C 71.772121,117.43937 104.01347,116.05138 115.57839,133.10001 z "
     style="fill:#ffffff;fill-opacity:1;fill-rule:evenodd;stroke:#000000;stroke-width:3;stroke-linejoin:miter;stroke-miterlimit:4;stroke-dasharray:none;stroke-opacity:1"
     id="path1900" />
  <path
     d="M 109.21643,137.27246 C 119.32874,152.20542 107.55173,177.64037 82.913456,194.07933 C 58.275183,210.51829 30.108131,211.73451 20.004663,196.79566 C 9.8923605,181.86271 21.66937,156.42776 46.307644,139.9888 C 70.945917,123.54984 99.112969,122.33361 109.21643,137.27246 z "
     style="fill:#ffffff;fill-opacity:1;fill-rule:evenodd;stroke:#000000;stroke-width:3;stroke-linejoin:miter;stroke-miterlimit:4;stroke-dasharray:none;stroke-opacity:1"
     id="path4561" />
  <path
     d="M 147.52945,173.58111 C 154.80135,187.69653 147.60582,211.95236 129.56217,230.95317 C 112.57474,248.84176 89.718763,257.49589 75.051703,253.0767 C 75.807983,254.12326 83.864233,260.27388 87.160443,261.23549 C 101.52734,265.4268 122.95193,256.5679 139.53092,239.10942 C 156.45399,221.28861 164.07828,198.83779 158.41829,184.85161 C 157.2612,181.99237 149.53205,174.51005 147.52945,173.58111 z "
     style="fill:#ff0000;fill-opacity:1;fill-rule:evenodd;stroke:#000000;stroke-width:3;stroke-linecap:butt;stroke-linejoin:miter;stroke-miterlimit:4;stroke-dasharray:none;stroke-opacity:1"
     id="path2789" />
  <path
     d="M 352.81217,192.98442 C 349.09777,196.58824 345.33702,199.96942 341.53092,203.14067 C 356.1949,207.1713 365.48856,216.55095 365.18717,235.54692 C 368.78543,231.4661 372.32765,227.2001 375.78092,222.73442 C 373.77652,208.98145 366.93952,198.51112 352.81217,192.98442 z "
     style="fill:#ff0000;fill-opacity:1;fill-rule:evenodd;stroke:#000000;stroke-width:3;stroke-linecap:butt;stroke-linejoin:miter;stroke-miterlimit:4;stroke-dasharray:none;stroke-opacity:1"
     id="path8141" />
  <path
     d="M 423.96842,86.765671 L 415.37467,109.64067 L 427.81217,115.39067 L 436.74967,91.546921 L 423.96842,86.765671 z "
     style="fill:#ffffff;fill-opacity:1;fill-rule:evenodd;stroke:#000000;stroke-width:3.00000167;stroke-linejoin:miter;stroke-miterlimit:4;stroke-dasharray:none;stroke-opacity:1"
     id="rect11697" />
</svg>
